<?xml version="1.0" standalone="no"?>
<!DOCTYPE svg PUBLIC "-//W3C//DTD SVG 20010904//EN"
 "http://www.w3.org/TR/2001/REC-SVG-20010904/DTD/svg10.dtd">
<svg version="1.0" xmlns="http://www.w3.org/2000/svg"
 width="748.000000pt" height="204.000000pt" viewBox="0 0 748.000000 204.000000"
 preserveAspectRatio="xMidYMid meet">

<g transform="translate(0.000000,204.000000) scale(0.100000,-0.100000)"
fill="#000000" stroke="none">
<path d="M1704 2006 c-41 -18 -91 -73 -105 -115 -19 -57 -5 -147 28 -190 53
-66 144 -92 238 -67 30 7 34 3 185 -174 85 -101 161 -191 168 -201 11 -16 9
-26 -12 -68 -14 -27 -34 -52 -43 -55 -10 -3 -141 -30 -292 -61 l-274 -55 -35
41 c-80 93 -202 105 -295 28 -46 -38 -67 -85 -67 -151 0 -63 18 -106 63 -145
70 -61 180 -70 255 -20 47 31 92 113 92 169 0 21 2 38 3 38 6 0 498 100 522
106 19 5 20 0 20 -108 0 -106 2 -117 32 -181 18 -37 55 -91 83 -121 27 -29 50
-57 50 -61 0 -5 -21 -36 -47 -69 -26 -34 -47 -62 -48 -64 -1 -1 -18 5 -38 13
-76 32 -165 9 -224 -58 -114 -130 -23 -328 151 -328 61 0 91 10 135 46 76 65
93 180 39 262 l-26 39 45 59 c25 33 48 64 53 68 4 5 30 -1 56 -12 125 -56 260
-51 391 14 89 44 162 122 206 221 28 62 31 79 31 169 0 85 -4 109 -26 162 -14
34 -38 77 -52 96 l-26 34 67 54 c91 74 85 72 137 43 33 -18 60 -25 99 -25 l54
0 21 -102 c11 -56 28 -144 37 -194 l17 -93 -36 -40 c-43 -47 -50 -72 -44 -150
3 -47 10 -68 34 -97 84 -106 238 -109 321 -8 63 75 63 174 1 249 -47 57 -100
79 -173 74 l-61 -5 -24 121 c-12 66 -29 153 -36 191 l-12 70 33 27 c139 116
70 333 -114 355 -143 17 -262 -139 -207 -271 9 -22 15 -40 14 -41 -2 -1 -38
-29 -80 -63 l-77 -63 -48 35 c-87 63 -145 80 -263 80 -140 0 -191 -19 -326
-125 -7 -6 -69 59 -179 187 -155 181 -166 196 -152 212 42 46 60 147 36 209
-14 38 -67 92 -106 109 -41 18 -128 17 -169 0z m151 -40 c48 -20 95 -89 95
-139 0 -123 -139 -202 -244 -138 -164 102 -30 352 149 277z m1470 -295 c93
-53 102 -199 15 -261 -45 -32 -123 -38 -170 -12 -93 51 -110 185 -32 255 51
46 125 53 187 18z m-582 -321 c75 -28 146 -86 194 -157 86 -129 85 -306 -2
-437 -43 -66 -92 -107 -168 -142 -246 -112 -523 38 -570 309 -9 53 -8 76 6
131 22 90 39 123 98 189 54 61 140 110 219 127 61 12 160 3 223 -20z m-1259
-278 c51 -30 71 -67 71 -132 0 -44 -5 -66 -21 -86 -52 -70 -130 -92 -201 -56
-97 50 -117 176 -41 251 54 53 126 61 192 23z m2102 -167 c100 -76 78 -225
-40 -270 -83 -32 -166 5 -200 88 -18 42 -19 53 -7 95 7 26 21 57 33 69 56 60
148 68 214 18z m-1425 -446 c134 -41 152 -224 29 -290 -93 -51 -216 11 -227
114 -10 84 27 145 104 172 47 17 47 17 94 4z"/>
<path d="M343 1484 c-24 -6 -58 -24 -74 -40 -61 -58 -62 -61 -61 -374 0 -309
2 -323 54 -377 50 -52 76 -56 373 -56 297 0 323 4 373 56 52 54 54 69 54 372
0 190 -4 290 -12 310 -16 42 -67 93 -108 106 -47 16 -540 18 -599 3z m586 -62
c19 -9 44 -30 55 -45 20 -27 21 -43 24 -306 3 -275 3 -277 -20 -311 -44 -67
-62 -70 -353 -70 -291 0 -309 4 -352 69 -22 33 -23 40 -23 300 0 297 3 314 69
358 33 22 40 23 300 23 233 0 270 -2 300 -18z"/>
<path d="M3760 1070 l0 -262 143 4 c155 4 184 13 230 67 45 54 60 110 55 208
-4 91 -20 135 -62 181 -43 48 -72 56 -223 60 l-143 4 0 -262z m279 144 c38
-32 55 -90 48 -169 -5 -73 -29 -122 -63 -135 -14 -6 -57 -10 -95 -10 l-69 0 0
170 0 170 74 0 c65 0 78 -3 105 -26z"/>
<path d="M5080 1070 l0 -260 50 0 50 0 0 63 c0 53 4 67 23 85 l22 21 44 -80
c24 -44 49 -83 56 -85 7 -3 31 -4 53 -2 l41 3 -65 114 c-35 62 -64 117 -64
120 0 3 27 37 61 74 l61 67 -61 0 -60 0 -53 -65 -53 -64 -3 134 -3 135 -49 0
-50 0 0 -260z"/>
<path d="M5680 1070 l0 -260 50 0 50 0 1 203 1 202 44 -180 c24 -99 46 -190
49 -202 5 -20 12 -23 54 -23 l49 0 49 198 48 197 3 -197 2 -198 50 0 50 0 0
260 0 260 -78 0 -78 0 -44 -170 c-25 -93 -47 -170 -50 -170 -3 0 -25 77 -50
170 l-45 170 -77 0 -78 0 0 -260z"/>
<path d="M6728 1284 c-32 -20 -38 -30 -38 -59 0 -31 -3 -35 -25 -35 -22 0 -25
-4 -25 -40 0 -36 3 -40 25 -40 l25 0 0 -126 c0 -69 4 -133 10 -143 15 -29 64
-44 115 -37 46 7 50 13 39 54 -4 15 -14 22 -30 22 -35 0 -44 28 -44 134 l0 96
35 0 c34 0 35 1 35 40 0 39 -1 40 -35 40 l-35 0 0 60 c0 33 -3 60 -7 59 -5 0
-25 -11 -45 -25z"/>
<path d="M4350 1178 c-65 -33 -90 -82 -90 -176 0 -114 35 -169 123 -193 66
-18 125 -3 169 41 50 50 49 67 -4 72 -35 4 -47 0 -65 -19 -27 -29 -72 -30
-101 -3 -12 12 -22 25 -22 30 0 4 -3 15 -6 24 -5 14 9 16 120 16 l126 0 0 33
c0 114 -76 197 -180 197 -14 0 -46 -10 -70 -22z m127 -80 c13 -12 23 -32 23
-45 0 -22 -3 -23 -76 -23 -65 0 -75 2 -70 16 3 9 6 20 6 25 0 19 41 49 67 49
15 0 37 -10 50 -22z"/>
<path d="M4744 1190 c-43 -14 -75 -52 -81 -99 -5 -36 -2 -44 28 -74 26 -26 51
-38 109 -52 100 -24 116 -37 84 -69 -32 -32 -134 -10 -134 29 0 12 -10 13 -47
8 -27 -3 -49 -7 -51 -8 -8 -7 30 -65 58 -88 60 -51 194 -44 252 13 22 22 28
38 28 70 0 75 -25 96 -146 126 -38 9 -75 23 -83 30 -24 22 4 44 54 44 34 0 48
-5 63 -24 16 -21 25 -24 60 -19 23 3 42 8 42 10 0 22 -39 77 -63 90 -37 19
-131 26 -173 13z"/>
<path d="M6369 1191 c-47 -15 -66 -30 -84 -66 -9 -20 -15 -38 -13 -39 1 -2 22
-6 46 -10 33 -5 42 -3 42 9 0 34 86 48 115 19 9 -9 15 -26 13 -37 -2 -17 -18
-25 -92 -43 -69 -16 -95 -28 -113 -48 -34 -39 -31 -96 6 -138 25 -28 34 -32
84 -32 42 -1 62 4 86 22 37 27 37 27 44 2 4 -16 14 -20 52 -20 41 0 46 2 39
18 -4 9 -10 83 -13 163 -5 125 -9 150 -25 168 -32 36 -123 51 -187 32z m121
-246 c0 -54 -87 -87 -123 -47 -23 25 -4 49 48 61 66 15 75 14 75 -14z"/>
<path d="M6990 1178 c-65 -33 -90 -82 -90 -176 0 -114 35 -169 123 -193 66
-18 125 -3 169 41 50 50 49 67 -4 72 -35 4 -47 0 -65 -19 -27 -29 -72 -30
-101 -3 -12 12 -22 25 -22 30 0 4 -3 15 -6 24 -5 14 9 16 120 16 l126 0 0 33
c0 114 -76 197 -180 197 -14 0 -46 -10 -70 -22z m127 -80 c13 -12 23 -32 23
-45 0 -22 -3 -23 -76 -23 -65 0 -75 2 -70 16 3 9 6 20 6 25 0 19 41 49 67 49
15 0 37 -10 50 -22z"/>
</g>
</svg>
